<svg width="31" height="24" viewBox="0 0 31 24" fill="none" xmlns="http://www.w3.org/2000/svg">
<path d="M30.2 12.3C29.1 18.4 23.8 22.6 17.9 22.6C17.1 22.6 16.4 22.5 15.6 22.4C16.9 21.1 17.9 19.6 18.6 18.1C18.6 18 18.7 17.9 18.7 17.8C19 17.2 19.2 16.6 19.4 16C19.5 15.8 19.5 15.5 19.6 15.3C20.4 14.6 21.2 14 22.1 13.5C24.6 12.3 27.4 11.8 30.2 12.3Z" fill="url(#paint0_linear_202_266)" stroke="black" stroke-width="1.5" stroke-miterlimit="10" stroke-linecap="round" stroke-linejoin="round"/>
<path d="M15.6 22.4C14.8 22.5 14.1 22.6 13.3 22.6C7.30002 22.6 2.1 18.4 1 12.3C3.9 11.8 6.7 12.3 9 13.5C9.9 14 10.8 14.6 11.5 15.3C11.6 15.5 11.6 15.8 11.7 16C11.9 16.6 12.1 17.2 12.3 17.8C12.3 17.9 12.4 18 12.4 18.1C13.3 19.6 14.3 21.1 15.6 22.4Z" fill="url(#paint1_linear_202_266)" stroke="black" stroke-width="1.5" stroke-miterlimit="10" stroke-linecap="round" stroke-linejoin="round"/>
<path d="M20 11.7C20 12.9 19.9 14.1 19.6 15.3C19.5 15.5 19.5 15.8 19.4 16C19.2 16.6 19 17.2 18.7 17.8C18.7 17.9 18.6 18 18.6 18.1C17.9 19.7 16.8 21.1 15.6 22.4C14.3 21.1 13.3 19.6 12.6 18.1C12.6 18 12.5 17.9 12.5 17.8C12.2 17.2 12 16.6 11.9 16C11.8 15.8 11.8 15.5 11.7 15.3C11 12.5 11.2 9.50002 12.1 6.80002C12.8 4.70002 14 2.7 15.7 1C17.4 2.7 18.6 4.70002 19.3 6.80002C19.8 8.40002 20 10 20 11.7Z" fill="url(#paint2_linear_202_266)" stroke="black" stroke-width="1.5" stroke-miterlimit="10" stroke-linecap="round" stroke-linejoin="round"/>
<path d="M25.2 5.30002C25.2 8.40002 24.1 11.3 22.2 13.5C21.3 14 20.4 14.6 19.7 15.3C20 14.1 20.1 12.9 20.1 11.7C20.1 10 19.8 8.40002 19.3 6.80002C21 5.80002 23 5.30002 25.2 5.30002Z" stroke="black" stroke-width="1.5" stroke-miterlimit="10" stroke-linecap="round" stroke-linejoin="round"/>
<path d="M11.6 15.3C10.8 14.6 9.99998 14 9.09998 13.5C7.19998 11.3 6.09998 8.40002 6.09998 5.30002C8.19998 5.30002 10.3 5.80002 12 6.80002C11 9.50002 10.9 12.5 11.6 15.3Z" stroke="black" stroke-width="1.5" stroke-miterlimit="10" stroke-linecap="round" stroke-linejoin="round"/>
<defs>
<linearGradient id="paint0_linear_202_266" x1="22.9" y1="12.1075" x2="22.9" y2="22.6" gradientUnits="userSpaceOnUse">
<stop stop-color="#DDC0B4"/>
<stop offset="0.46875" stop-color="#F3E5A9"/>
<stop offset="1" stop-color="#EBD884"/>
</linearGradient>
<linearGradient id="paint1_linear_202_266" x1="8.3" y1="12.1075" x2="8.3" y2="22.6" gradientUnits="userSpaceOnUse">
<stop stop-color="#DDC0B4"/>
<stop offset="0.46875" stop-color="#F3E5A9"/>
<stop offset="1" stop-color="#EBD884"/>
</linearGradient>
<linearGradient id="paint2_linear_202_266" x1="15.6395" y1="1" x2="15.6395" y2="22.4" gradientUnits="userSpaceOnUse">
<stop stop-color="#DDC0B4"/>
<stop offset="0.46875" stop-color="#F3E5A9"/>
<stop offset="1" stop-color="#EBD884"/>
</linearGradient>
</defs>
</svg>
