<svg width="40" height="40" viewBox="0 0 40 40" fill="none" xmlns="http://www.w3.org/2000/svg">
<path d="M34.7521 22.133C34.7521 22.2199 34.6653 22.2198 34.5784 22.3067C32.928 24.3915 30.6695 26.0419 28.0636 27.1711C25.8051 28.1266 23.1992 28.7347 20.4195 28.7347C17.6398 28.7347 15.0339 28.2135 12.7754 27.1711C10.0826 26.0419 7.82413 24.3915 6.26057 22.3067C6.1737 22.2198 6.17372 22.2199 6.08685 22.133C8.1716 15.7919 13.2097 11.4487 18.3348 12.0567C19.0297 12.1436 19.7246 12.3173 20.3326 12.5779C21.0275 12.3173 21.6356 12.1436 22.3305 12.0567" fill="url(#paint0_linear_17_5026)"/>
<path d="M34.7521 22.133C34.7521 22.2199 34.6653 22.2198 34.5784 22.3067C32.928 24.3915 30.6695 26.0419 28.0636 27.1711C25.8051 28.1266 23.1992 28.7347 20.4195 28.7347C17.6398 28.7347 15.0339 28.2135 12.7754 27.1711C10.0826 26.0419 7.82413 24.3915 6.26057 22.3067C6.1737 22.2198 6.17372 22.2199 6.08685 22.133C8.1716 15.7919 13.2097 11.4487 18.3348 12.0567C19.0297 12.1436 19.7246 12.3173 20.3326 12.5779C21.0275 12.3173 21.6356 12.1436 22.3305 12.0567" stroke="black" stroke-width="1.5" stroke-miterlimit="10" stroke-linecap="round" stroke-linejoin="round"/>
<path d="M20.4195 12.5779C21.1144 12.3173 21.7225 12.1436 22.5042 12.0567C27.6292 11.4487 32.6674 15.7919 34.7521 22.133C34.7521 22.133 34.7521 22.133 34.5784 22.3067C32.928 24.3915 30.6695 26.0419 28.0636 27.1711C25.8051 28.1266 23.1992 28.7347 20.4195 28.7347" fill="url(#paint1_linear_17_5026)"/>
<path d="M20.4195 12.5779C21.1144 12.3173 21.7225 12.1436 22.5042 12.0567C27.6292 11.4487 32.6674 15.7919 34.7521 22.133C34.7521 22.133 34.7521 22.133 34.5784 22.3067C32.928 24.3915 30.6695 26.0419 28.0636 27.1711C25.8051 28.1266 23.1992 28.7347 20.4195 28.7347" stroke="black" stroke-width="1.5" stroke-miterlimit="10" stroke-linecap="round" stroke-linejoin="round"/>
<path d="M20.4195 22.133H27.5424H34.6653C24.0678 21.7855 20.3326 16.7474 20.3326 16.7474C20.3326 16.7474 16.5975 21.6987 6 22.133H13.1229H20.4195Z" fill="white" stroke="black" stroke-width="1.5" stroke-miterlimit="10" stroke-linecap="round" stroke-linejoin="round"/>
<defs>
<linearGradient id="paint0_linear_17_5026" x1="20.4195" y1="12" x2="20.4195" y2="28.7347" gradientUnits="userSpaceOnUse">
<stop stop-color="#DDC0B4"/>
<stop offset="0.46875" stop-color="#F3E5A9"/>
<stop offset="1" stop-color="#EBD884"/>
</linearGradient>
<linearGradient id="paint1_linear_17_5026" x1="27.5858" y1="12" x2="27.5858" y2="28.7347" gradientUnits="userSpaceOnUse">
<stop stop-color="#DDC0B4"/>
<stop offset="0.46875" stop-color="#F3E5A9"/>
<stop offset="1" stop-color="#EBD884"/>
</linearGradient>
</defs>
</svg>
