<svg width="40" height="40" viewBox="0 0 40 40" fill="none" xmlns="http://www.w3.org/2000/svg">
<path d="M9.19998 15.55H6.29999C6.29999 23.05 12.4 29.25 20 29.25C27.6 29.25 33.7 23.15 33.7 15.55H30.8" fill="url(#paint0_linear_17_4884)"/>
<path d="M9.19998 15.55H6.29999C6.29999 23.05 12.4 29.25 20 29.25C27.6 29.25 33.7 23.15 33.7 15.55H30.8" stroke="black" stroke-width="1.5" stroke-miterlimit="10" stroke-linecap="round" stroke-linejoin="round"/>
<path d="M20 26.25C25.9094 26.25 30.7 21.4594 30.7 15.55C30.7 9.64056 25.9094 4.85001 20 4.85001C14.0906 4.85001 9.29999 9.64056 9.29999 15.55C9.29999 21.4594 14.0906 26.25 20 26.25Z" fill="white" stroke="black" stroke-width="1.5" stroke-miterlimit="10" stroke-linecap="round" stroke-linejoin="round"/>
<path d="M20 23.15C24.1974 23.15 27.6 19.7474 27.6 15.55C27.6 11.3526 24.1974 7.95001 20 7.95001C15.8027 7.95001 12.4 11.3526 12.4 15.55C12.4 19.7474 15.8027 23.15 20 23.15Z" fill="white" stroke="black" stroke-width="1.5" stroke-miterlimit="10" stroke-linecap="round" stroke-linejoin="round"/>
<path d="M20 11.05C22.5 11.05 24.5 13.05 24.5 15.55" stroke="black" stroke-width="1.5" stroke-miterlimit="10" stroke-linecap="round" stroke-linejoin="round"/>
<path d="M21.85 29.25H18.25V31.55H21.85V29.25Z" fill="url(#paint1_linear_17_4884)" stroke="black" stroke-width="1.5" stroke-miterlimit="10" stroke-linecap="round" stroke-linejoin="round"/>
<path d="M28.15 33.45C22.75 30.85 17.35 30.95 11.85 33.45V35.15H28.15V33.45Z" fill="url(#paint2_linear_17_4884)" stroke="black" stroke-width="1.5" stroke-miterlimit="10" stroke-linecap="round" stroke-linejoin="round"/>
<defs>
<linearGradient id="paint0_linear_17_4884" x1="20" y1="15.55" x2="20" y2="29.25" gradientUnits="userSpaceOnUse">
<stop stop-color="#DDC0B4"/>
<stop offset="0.46875" stop-color="#F3E5A9"/>
<stop offset="1" stop-color="#EBD884"/>
</linearGradient>
<linearGradient id="paint1_linear_17_4884" x1="20.05" y1="29.25" x2="20.05" y2="31.55" gradientUnits="userSpaceOnUse">
<stop stop-color="#DDC0B4"/>
<stop offset="0.46875" stop-color="#F3E5A9"/>
<stop offset="1" stop-color="#EBD884"/>
</linearGradient>
<linearGradient id="paint2_linear_17_4884" x1="20" y1="31.5373" x2="20" y2="35.15" gradientUnits="userSpaceOnUse">
<stop stop-color="#DDC0B4"/>
<stop offset="0.46875" stop-color="#F3E5A9"/>
<stop offset="1" stop-color="#EBD884"/>
</linearGradient>
</defs>
</svg>
