<svg width="40" height="40" viewBox="0 0 40 40" fill="none" xmlns="http://www.w3.org/2000/svg">
<path d="M23.1 24.7C23.1 26 22.8 27.2 22.2 28.2C20.9 30.6 18.4 32.2 15.5 32.2C11.3 32.2 8 28.8 8 24.7C8 20.6 15.5 8.09999 15.5 8.09999C15.5 8.09999 18.3 12.7 20.5 17.3C21.9 20.2 23.1 23.1 23.1 24.7Z" fill="url(#paint0_linear_17_5036)" stroke="black" stroke-width="1.5" stroke-miterlimit="10" stroke-linecap="round" stroke-linejoin="round"/>
<path d="M31.9 22.5C31.9 26.1 29 29 25.4 29C24.2 29 23.1 28.7 22.2 28.2C22.8 27.2 23.1 26 23.1 24.7C23.1 23.1 21.9 20.2 20.5 17.2C22.4 12.9 25.4 8 25.4 8C25.4 8 31.9 18.9 31.9 22.5Z" stroke="black" stroke-width="1.5" stroke-miterlimit="10" stroke-linecap="round" stroke-linejoin="round"/>
<path d="M23.1 17.9C23.6 16.8 23.9 16.3 24.4 15.4" stroke="black" stroke-width="1.5" stroke-miterlimit="10" stroke-linecap="round" stroke-linejoin="round"/>
<path d="M12.2001 20.5C12.8001 19.2 13.1001 18.7 13.7001 17.6" stroke="black" stroke-width="1.5" stroke-miterlimit="10" stroke-linecap="round" stroke-linejoin="round"/>
<path d="M15.5 29.5C12.9 29.5 10.8 27.4 10.8 24.8" stroke="black" stroke-width="1.5" stroke-miterlimit="10" stroke-linecap="round" stroke-linejoin="round"/>
<defs>
<linearGradient id="paint0_linear_17_5036" x1="15.55" y1="8.09999" x2="15.55" y2="32.2" gradientUnits="userSpaceOnUse">
<stop stop-color="#DDC0B4"/>
<stop offset="0.46875" stop-color="#F3E5A9"/>
<stop offset="1" stop-color="#EBD884"/>
</linearGradient>
</defs>
</svg>
