<svg width="25" height="24" viewBox="0 0 25 24" fill="none" xmlns="http://www.w3.org/2000/svg">
<path d="M12.793 2C6.53125 2 2.79297 5.73828 2.79297 12C2.79297 18.2617 6.53125 22 12.793 22C19.0547 22 22.793 18.2617 22.793 12C22.793 5.73828 19.0547 2 12.793 2ZM12.793 3C18.5127 3 21.793 6.28027 21.793 12C21.793 14.4615 21.1819 16.468 20.0339 17.9589C19.1573 15.2221 17.4484 13.6677 14.7655 13.1853C15.4212 12.5029 15.793 11.4215 15.793 10C15.793 7.49512 14.6719 6 12.793 6C10.9145 6 9.79297 7.49512 9.79297 10C9.79297 11.4214 10.1649 12.5027 10.8205 13.1852C8.13776 13.6675 6.42963 15.2221 5.55243 17.9595C4.40405 16.4685 3.79297 14.4619 3.79297 12C3.79297 6.28027 7.07324 3 12.793 3ZM10.793 10C10.793 8.87939 11.0527 7 12.793 7C14.5332 7 14.793 8.87939 14.793 10C14.793 11.1206 14.5332 13 12.793 13C11.0527 13 10.793 11.1206 10.793 10ZM6.33576 18.812C7.20148 15.4957 9.19672 14 12.793 14C16.3879 14 18.3835 15.4978 19.2495 18.8125C17.7208 20.2349 15.5422 21 12.793 21C10.0433 21 7.86444 20.2347 6.33576 18.812Z" fill="#17171A"/>
</svg>
