<svg xmlns="http://www.w3.org/2000/svg" xmlns:xlink="http://www.w3.org/1999/xlink" viewBox="0 0 461.95 410.37" transform="matrix(1, 0, 0, 1, 0, 0)"><defs fill="#0f0f0f"><style>.cls-1{fill:none;}.cls-2{clip-path:url(#clip-path);}.cls-3{fill:url(#linear-gradient);}.cls-4{clip-path:url(#clip-path-2);}.cls-5{fill:url(#linear-gradient-2);}.cls-6{clip-path:url(#clip-path-3);}.cls-7{fill:url(#linear-gradient-3);}.cls-8{clip-path:url(#clip-path-4);}.cls-9{fill:url(#linear-gradient-4);}.cls-10{fill:#0d0d0d;}.cls-11{fill:url(#linear-gradient-5);}.cls-12{clip-path:url(#clip-path-5);}.cls-13{fill:url(#linear-gradient-16);}.cls-14{clip-path:url(#clip-path-6);}.cls-15{fill:url(#linear-gradient-17);}.cls-16{clip-path:url(#clip-path-7);}.cls-17{fill:url(#linear-gradient-18);}.cls-18{clip-path:url(#clip-path-8);}.cls-19{fill:url(#linear-gradient-19);}</style><clipPath id="clip-path" transform="translate(-188.76 -34.37)" fill="#0f0f0f"><path class="cls-1" d="M288.52,124.27a48.73,48.73,0,0,0-28.19,22,46.31,46.31,0,0,0-5.87,17.44,58.77,58.77,0,0,0,.66,18.13c2.25,11.77,6.91,22.55,12.12,32.76,1.31,2.56,2.67,5.06,4.07,7.58s3,5.06,4.61,7.48c3.23,4.83,6.73,9.39,10.23,13.84s7.06,8.79,10.31,13.13c1.61,2.17,3.17,4.35,4.46,6.48a18.49,18.49,0,0,1,2.55,5.76L314,267.23a27.76,27.76,0,0,0-3.93-9.66,84.35,84.35,0,0,0-5.09-7.36c-3.51-4.61-7.1-8.92-10.57-13.27s-6.81-8.68-9.88-13.13c-1.54-2.22-3-4.47-4.34-6.76s-2.75-4.75-4-7.16c-5.17-9.62-9.66-19.62-11.83-29.89a51.09,51.09,0,0,1-1.09-15.34,37.85,37.85,0,0,1,4.3-14.4,41.13,41.13,0,0,1,23-19.2,34.42,34.42,0,0,1,15.12-1.43,41.63,41.63,0,0,1,14.71,5.14,85.33,85.33,0,0,1,13.22,9.55,66.48,66.48,0,0,1,11.19,11.89,82.48,82.48,0,0,1,8.3,14.29,88.59,88.59,0,0,1,5.3,15.87h0a75.82,75.82,0,0,0-11-32A70.34,70.34,0,0,0,336.64,141a84,84,0,0,0-13.39-11,45.86,45.86,0,0,0-16.57-6.69,40,40,0,0,0-7.07-.63,39.1,39.1,0,0,0-11.08,1.59" fill="#0f0f0f"/></clipPath><linearGradient id="linear-gradient" x1="3.42" y1="593.81" x2="5.55" y2="593.81" gradientTransform="matrix(52, 0, 0, -52, -113.65, 31042.25)" gradientUnits="userSpaceOnUse" fill="#0f0f0f"><stop offset="0" stop-color="#0a0a0a" fill="#0f0f0f"/><stop offset="0.37" stop-color="#000000" fill="#0f0f0f"/><stop offset="1" stop-color="#0f0f0f" fill="#0f0f0f"/></linearGradient><clipPath id="clip-path-2" transform="translate(-188.76 -34.37)" fill="#0f0f0f"><path class="cls-1" d="M569.16,121.84a85.54,85.54,0,0,0-18.54,5.69c-11.88,5.09-22.28,12.78-31.33,21.48a154.27,154.27,0,0,0-23.14,29.25,160.08,160.08,0,0,0-15.77,33.32l.27.11A208.22,208.22,0,0,1,500.11,181a165.64,165.64,0,0,1,24.48-26.15,103.94,103.94,0,0,1,29.76-18.19,75.11,75.11,0,0,1,16.57-4.36,36.81,36.81,0,0,1,15.66,1.11,24.67,24.67,0,0,1,6.71,3.13,20.29,20.29,0,0,1,2.72,2.24,13.78,13.78,0,0,1,2.06,2.61c2.43,3.77,3.18,9.13,3,14.65a78.53,78.53,0,0,1-2.94,17c-1.54,5.7-3.52,11.36-5.64,17a182.91,182.91,0,0,1-15.85,32.28,177,177,0,0,1-10.27,14.95c-3.61,4.88-7.53,9.53-11.54,14.15l.29.29a166.65,166.65,0,0,0,44.08-58.88c2.55-5.61,5-11.33,7.07-17.29a84.93,84.93,0,0,0,4.48-18.78,43.6,43.6,0,0,0,0-10.28,28.8,28.8,0,0,0-3.45-10.52c-4-6.88-10.76-11-17.49-13a43,43,0,0,0-10.23-1.74c-.9,0-1.81-.07-2.73-.07a38.77,38.77,0,0,0-7.6.7" fill="#0f0f0f"/></clipPath><linearGradient id="linear-gradient-2" x1="4.63" y1="594.16" x2="6.75" y2="594.16" gradientTransform="matrix(63.91, 0, 0, -63.91, -8.93, 38126.68)" xlink:href="#linear-gradient" fill="#0f0f0f"/><clipPath id="clip-path-3" transform="translate(-188.76 -34.37)" fill="#0f0f0f"><path class="cls-1" d="M453.53,34.45A65.82,65.82,0,0,0,435,38.26,92.87,92.87,0,0,0,418.51,46,90.17,90.17,0,0,0,411,51.08c-1.23.92-2.44,1.88-3.65,2.92-.59.5-1.24,1.09-1.8,1.62l-1.57,1.54a131.57,131.57,0,0,0-11.71,13.07,132.4,132.4,0,0,0-26.42,63.29,65.66,65.66,0,0,0-.63,8.86l.15,4.31.38,4.29a105.37,105.37,0,0,0,3.22,16.77,101.16,101.16,0,0,0,14.32,30.29l.25-.14A112.68,112.68,0,0,1,374,166.66a99,99,0,0,1-1.12-16l.13-4,.29-4a57.6,57.6,0,0,1,1.33-7.57,133.81,133.81,0,0,1,11-29.74,128.51,128.51,0,0,1,17.67-25.9,116.43,116.43,0,0,1,11-11l1.46-1.27c.47-.39.86-.71,1.35-1.07.92-.71,1.92-1.41,2.95-2.08a74.57,74.57,0,0,1,6.44-3.8c8.82-4.74,18.57-7.93,27.59-8.12a30.54,30.54,0,0,1,12.55,2.22,25.76,25.76,0,0,1,9.72,7.19c5.68,6.52,9.49,15.92,12,25.74a167.29,167.29,0,0,1,4.74,31,171.35,171.35,0,0,1-.59,31.68c-2.53,20.95-10.61,41.1-21.69,59.69a143.13,143.13,0,0,1-8.83,13.4c-3.2,4.33-6.58,8.62-10,12.89L431,261.58c-14,17.32-27.83,35.16-39.37,55.43l17.29,8.14A182.76,182.76,0,0,1,423,296.48q4.17-6.93,8.69-13.74c3-4.51,6.19-9,9.41-13.4,6.43-8.87,13.25-17.5,20-26.32,3.42-4.38,6.82-8.81,10.12-13.41s6.42-9.59,9.29-14.31a253.23,253.23,0,0,0,15.59-30.21,167.28,167.28,0,0,0,10.15-32.95,182,182,0,0,0,3.14-34.36A163.09,163.09,0,0,0,506,83.12a96.72,96.72,0,0,0-5.48-17.33,61.54,61.54,0,0,0-10.15-16.43,43.24,43.24,0,0,0-16.92-12,47.6,47.6,0,0,0-17.09-3q-1.43,0-2.84.07" fill="#0f0f0f"/></clipPath><linearGradient id="linear-gradient-3" x1="3.29" y1="594.33" x2="5.41" y2="594.33" gradientTransform="matrix(71.27, 0, 0, -71.27, -63.54, 42504.57)" xlink:href="#linear-gradient" fill="#0f0f0f"/><clipPath id="clip-path-4" transform="translate(-188.76 -34.37)" fill="#0f0f0f"><path class="cls-1" d="M576.1,244.94c-2.23.07-4.43.16-6.67.29s-4.57.33-6.84.63c-18.23,2.17-35.35,9.34-50.37,18.89S484,286.23,471.57,298.62l.43.51c14.17-10.38,28.18-20.87,43.41-28.92s31.43-13.93,48.14-15.36c2.08-.2,4.17-.28,6.26-.35s4.32-.09,6.46-.1c4.31,0,8.6.06,12.86.28,8.49.46,17,1.45,24.64,3.81A36.31,36.31,0,0,1,624,263.34a15.84,15.84,0,0,1,5.9,7.55l.33,1.13c.11.37.29,1.09.39,1.5a20.46,20.46,0,0,1,.49,2.6,20,20,0,0,1,0,5.08,35.11,35.11,0,0,1-3.45,10.6,77.08,77.08,0,0,1-6.31,10.31c-2.45,3.3-5.12,6.6-7.86,9.66a122.51,122.51,0,0,1-18.72,16.37,160.48,160.48,0,0,1-44.86,22.47,147.35,147.35,0,0,1-49.29,7c-16.32-.11-31.7-5.59-47-13.07s-30.27-16.42-45.37-25.23-30-17.65-44.57-27.08c-7.32-4.69-14.56-9.5-21.89-14.34s-14.77-9.76-22.94-14.22a101.9,101.9,0,0,0-26.57-10.23,130.58,130.58,0,0,0-27.75-3.22,132.68,132.68,0,0,0-14,.79,109.69,109.69,0,0,0-13.82,2.59,84.43,84.43,0,0,0-26,11.41c-7.89,5.39-15,12.69-18.82,21.79a38,38,0,0,0-3.19,14.33,35.11,35.11,0,0,0,3.15,14.15,54,54,0,0,0,17.56,21.11,60,60,0,0,0,24.68,10.71,150.84,150.84,0,0,0,26.46,1.34,118.66,118.66,0,0,0,13.13-1.2c2.17-.34,4.33-.73,6.46-1.27a24.83,24.83,0,0,0,6.18-2.21,24.83,24.83,0,0,1-6.25,1.89c-2.14.43-4.31.71-6.48.95a117.25,117.25,0,0,1-13.07.55c-4.36,0-8.71-.34-13-.79a104,104,0,0,1-12.8-2,56.2,56.2,0,0,1-22.38-11.61c-6.4-5.43-11.65-12.29-14.4-19.86a25.24,25.24,0,0,1,1.7-22.36c3.65-6.86,10-12,17-15.6a75.73,75.73,0,0,1,23-6.89,104.67,104.67,0,0,1,12.17-1.12,120.71,120.71,0,0,1,12.27,0c4.1.13,8.2.49,12.27,1s8.15,1.16,12,2.06a84.6,84.6,0,0,1,22.31,8.57c7.22,3.92,14.42,8.66,21.72,13.44s14.65,9.66,22.09,14.41c14.85,9.51,30.06,18.69,45.33,27.32S430.41,351.2,446.7,359a167.86,167.86,0,0,0,25.69,9.95,110.54,110.54,0,0,0,13.82,3A111.94,111.94,0,0,0,500.3,373a161.3,161.3,0,0,0,54.08-8.82,174,174,0,0,0,48.18-25.44,130.51,130.51,0,0,0,20.31-18.65c3-3.54,5.78-7.12,8.46-10.91a88.62,88.62,0,0,0,7.1-12.25,46.58,46.58,0,0,0,4.23-14.39,31.58,31.58,0,0,0-1-11.85c-.17-.65-.27-1-.47-1.67l-.66-2a27,27,0,0,0-10.26-12.64,46.9,46.9,0,0,0-13.53-6c-9.17-2.52-18.28-3.25-27.26-3.5q-2.56-.07-5.11-.06c-2.78,0-5.54.05-8.3.14" fill="#0f0f0f"/></clipPath><linearGradient id="linear-gradient-4" x1="0.65" y1="594.65" x2="2.77" y2="594.65" gradientTransform="matrix(217.37, 0, 0, -217.37, -146.26, 129535.55)" xlink:href="#linear-gradient" fill="#0f0f0f"/><linearGradient id="linear-gradient-5" x1="203.07" y1="421.94" x2="650.71" y2="421.94" gradientUnits="userSpaceOnUse" fill="#0f0f0f"><stop offset="0" stop-color="#0d0d0d" fill="#0f0f0f"/><stop offset="0.6" stop-color="#000000" fill="#0f0f0f"/><stop offset="1" stop-color="#000000" fill="#0f0f0f"/></linearGradient><clipPath id="clip-path-5" transform="translate(-188.76 -34.37)" fill="#0f0f0f"><path class="cls-1" d="M288.2,124.2a48.61,48.61,0,0,0-28.13,21.9,46.22,46.22,0,0,0-5.86,17.41,58.68,58.68,0,0,0,.65,18.09c2.24,11.74,6.89,22.48,12.08,32.66,1.31,2.55,2.66,5,4.06,7.56s3,5,4.6,7.46c3.22,4.82,6.71,9.36,10.19,13.8s7,8.75,10.26,13.08c1.6,2.16,3.15,4.33,4.44,6.45A18.34,18.34,0,0,1,303,268.3l10.64-1.63a27.73,27.73,0,0,0-3.93-9.65,83.06,83.06,0,0,0-5.07-7.34c-3.5-4.6-7.08-8.89-10.53-13.22s-6.79-8.65-9.84-13.07c-1.53-2.21-3-4.45-4.32-6.73s-2.73-4.73-4-7.13c-5.15-9.58-9.62-19.53-11.78-29.76a50.87,50.87,0,0,1-1.08-15.25,37.58,37.58,0,0,1,4.27-14.32,40.9,40.9,0,0,1,22.92-19.1,34.22,34.22,0,0,1,15-1.43,41.44,41.44,0,0,1,14.64,5.11,84.73,84.73,0,0,1,13.17,9.5,66.13,66.13,0,0,1,11.15,11.83,82.22,82.22,0,0,1,8.28,14.22,88.55,88.55,0,0,1,5.29,15.8h0A75.46,75.46,0,0,0,347,154.24a70.11,70.11,0,0,0-10.81-13.39,83.5,83.5,0,0,0-13.34-10.93,45.77,45.77,0,0,0-16.52-6.68,39.76,39.76,0,0,0-7.06-.63,39,39,0,0,0-11,1.58" fill="#0f0f0f"/></clipPath><linearGradient id="linear-gradient-16" x1="3.62" y1="598.68" x2="5.77" y2="598.68" gradientTransform="matrix(51.19, 0, 0, -51.19, -120.99, 30805.37)" xlink:href="#linear-gradient-5" fill="#0f0f0f"/><clipPath id="clip-path-6" transform="translate(-188.76 -34.37)" fill="#0f0f0f"><path class="cls-1" d="M567.79,121.75a85,85,0,0,0-18.49,5.68c-11.84,5.08-22.21,12.75-31.22,21.42A153.51,153.51,0,0,0,495,178a158.88,158.88,0,0,0-15.68,33.22l.27.11A208.1,208.1,0,0,1,499,180.77a165.19,165.19,0,0,1,24.4-26,103.54,103.54,0,0,1,29.63-18.09,74.78,74.78,0,0,1,16.49-4.33,36.65,36.65,0,0,1,15.56,1.1,24.51,24.51,0,0,1,6.66,3.1,20.38,20.38,0,0,1,2.69,2.22,13.85,13.85,0,0,1,2,2.58c2.4,3.73,3.16,9,2.95,14.54a78.18,78.18,0,0,1-2.92,16.91c-1.53,5.68-3.5,11.31-5.61,17a182.54,182.54,0,0,1-15.76,32.16A176.59,176.59,0,0,1,565,236.8c-3.59,4.86-7.49,9.5-11.48,14.1l.29.3a165.8,165.8,0,0,0,44-58.64c2.54-5.59,5-11.29,7.05-17.23a84.88,84.88,0,0,0,4.47-18.72,43.49,43.49,0,0,0,0-10.26,28.81,28.81,0,0,0-3.44-10.52c-4-6.88-10.75-11-17.48-13a42.75,42.75,0,0,0-10.21-1.74q-1.35-.07-2.72-.07a38.66,38.66,0,0,0-7.59.7" fill="#0f0f0f"/></clipPath><linearGradient id="linear-gradient-17" x1="4.83" y1="598.13" x2="6.98" y2="598.13" gradientTransform="matrix(62.88, 0, 0, -62.88, -18.09, 37765.03)" xlink:href="#linear-gradient-5" fill="#0f0f0f"/><clipPath id="clip-path-7" transform="translate(-188.76 -34.37)" fill="#0f0f0f"><path class="cls-1" d="M452.6,34.62a65.68,65.68,0,0,0-18.53,3.81,92.54,92.54,0,0,0-16.43,7.74,89.92,89.92,0,0,0-7.52,5.06c-1.23.92-2.44,1.88-3.65,2.92-.59.5-1.24,1.09-1.8,1.62l-1.57,1.54a131,131,0,0,0-11.68,13,132,132,0,0,0-26.3,63.13,65.18,65.18,0,0,0-.62,8.84l.15,4.3.39,4.27a104.73,104.73,0,0,0,3.23,16.72,100.62,100.62,0,0,0,14.31,30.17l.25-.14a112.48,112.48,0,0,1-9.38-31.15,98.71,98.71,0,0,1-1.1-16l.13-4,.29-4a57.69,57.69,0,0,1,1.33-7.53,133.31,133.31,0,0,1,11-29.6,128.08,128.08,0,0,1,17.6-25.76,115.77,115.77,0,0,1,11-10.9l1.46-1.27c.47-.39.86-.7,1.34-1.06.92-.7,1.91-1.4,2.93-2.06a74.13,74.13,0,0,1,6.4-3.77c8.77-4.71,18.47-7.87,27.43-8.06a30.26,30.26,0,0,1,12.43,2.21,25.52,25.52,0,0,1,9.62,7.13c5.63,6.46,9.42,15.81,12,25.57a167,167,0,0,1,4.74,30.83,170.87,170.87,0,0,1-.57,31.54c-2.51,20.85-10.54,40.91-21.58,59.44a142.36,142.36,0,0,1-8.79,13.34c-3.19,4.31-6.56,8.58-10,12.84L430.08,261c-14,17.25-27.76,35-39.29,55.22l17.53,8.26a181.16,181.16,0,0,1,14-28.56q4.15-6.91,8.64-13.69c3-4.5,6.16-8.93,9.36-13.35,6.39-8.84,13.19-17.44,19.92-26.23,3.4-4.36,6.79-8.78,10.08-13.36s6.39-9.57,9.26-14.27a253.52,253.52,0,0,0,15.55-30.11,167,167,0,0,0,10.14-32.84,181,181,0,0,0,3.15-34.26A162.59,162.59,0,0,0,505,83.23a96.62,96.62,0,0,0-5.46-17.29,61.39,61.39,0,0,0-10.13-16.41,43.23,43.23,0,0,0-16.92-11.95,47.58,47.58,0,0,0-17.07-3c-1,0-1.91,0-2.85.08" fill="#0f0f0f"/></clipPath><linearGradient id="linear-gradient-18" x1="3.45" y1="597.88" x2="5.6" y2="597.88" gradientTransform="matrix(70.19, 0, 0, -70.19, -71.79, 42110.05)" xlink:href="#linear-gradient-5" fill="#0f0f0f"/><clipPath id="clip-path-8" transform="translate(-188.76 -34.37)" fill="#0f0f0f"><path class="cls-1" d="M574.72,244.39c-2.22.07-4.42.16-6.65.29s-4.55.33-6.82.63c-18.17,2.17-35.24,9.32-50.2,18.85S482.9,285.59,470.57,298l.44.52c14.13-10.32,28.09-20.77,43.27-28.77s31.3-13.85,47.94-15.28c2.07-.2,4.15-.28,6.23-.35l6.44-.09c4.29,0,8.57.06,12.81.29,8.45.46,16.89,1.45,24.52,3.8a36.18,36.18,0,0,1,10.2,4.82,15.67,15.67,0,0,1,5.84,7.47l.33,1.12c.11.37.29,1.09.39,1.49a20.6,20.6,0,0,1,.49,2.58,19.83,19.83,0,0,1,0,5A34.85,34.85,0,0,1,626,291.12a76.63,76.63,0,0,1-6.28,10.25c-2.44,3.28-5.09,6.57-7.83,9.62a121.78,121.78,0,0,1-18.64,16.29,159.68,159.68,0,0,1-44.66,22.36,146.55,146.55,0,0,1-49.07,7c-16.23-.11-31.53-5.56-46.77-13s-30.15-16.35-45.19-25.13-29.84-17.58-44.4-27c-7.29-4.67-14.5-9.46-21.81-14.29S326.64,267.47,318.5,263a101.77,101.77,0,0,0-26.5-10.2,130.09,130.09,0,0,0-27.68-3.21,133.08,133.08,0,0,0-13.94.8A109.89,109.89,0,0,0,236.59,253,84.26,84.26,0,0,0,210.7,264.4c-7.87,5.38-14.94,12.68-18.77,21.76a37.85,37.85,0,0,0-3.17,14.31,35,35,0,0,0,3.15,14.12,53.8,53.8,0,0,0,17.52,21,59.77,59.77,0,0,0,24.61,10.66,150.38,150.38,0,0,0,26.36,1.32,118.23,118.23,0,0,0,13.08-1.2c2.16-.34,4.32-.73,6.44-1.27a24.8,24.8,0,0,0,6.16-2.2,24.54,24.54,0,0,1-6.23,1.88c-2.13.43-4.29.71-6.45.94a117.34,117.34,0,0,1-13,.54c-4.34-.05-8.68-.34-13-.8a103,103,0,0,1-12.75-2,55.93,55.93,0,0,1-22.28-11.57c-6.36-5.41-11.59-12.24-14.32-19.78a25.07,25.07,0,0,1,1.71-22.22c3.63-6.81,9.92-11.93,16.92-15.49a75.47,75.47,0,0,1,22.93-6.83,104.61,104.61,0,0,1,12.11-1.1,121,121,0,0,1,12.21,0c4.08.13,8.15.49,12.21,1s8.1,1.16,12,2.05a84.27,84.27,0,0,1,22.19,8.52c7.18,3.9,14.36,8.62,21.63,13.38s14.59,9.63,22,14.36c14.8,9.47,30,18.62,45.16,27.22s30.39,17.4,46.62,25.15a167,167,0,0,0,25.62,9.91,101.23,101.23,0,0,0,27.84,4,160.9,160.9,0,0,0,53.92-8.8,173.51,173.51,0,0,0,48-25.37,130.11,130.11,0,0,0,20.25-18.61c5.93-7,11.39-14.36,15.51-23.1a46.58,46.58,0,0,0,4.22-14.37,31.65,31.65,0,0,0-.16-8,31.18,31.18,0,0,0-.81-3.83c-.17-.65-.26-1-.47-1.66l-.66-2a27,27,0,0,0-10.26-12.63,46.81,46.81,0,0,0-13.51-6c-9.15-2.51-18.23-3.24-27.18-3.48q-2.52-.06-5-.06c-2.79,0-5.57.05-8.34.14" fill="#0f0f0f"/></clipPath><linearGradient id="linear-gradient-19" x1="0.69" y1="595.81" x2="2.85" y2="595.81" gradientTransform="matrix(213.73, 0, 0, -213.73, -153.06, 127616.55)" xlink:href="#linear-gradient-5" fill="#0f0f0f"/></defs><title>logo salon gold</title><g id="Layer_1" data-name="Layer 1"><g class="cls-2"><rect class="cls-3" x="64.92" y="88.31" width="104.76" height="146.15" fill="#0f0f0f"/></g><g class="cls-4"><rect class="cls-5" x="291.62" y="86.77" width="130.76" height="130.54" fill="#0f0f0f"/></g><g class="cls-6"><rect class="cls-7" x="176.36" width="144.29" height="290.78" fill="#0f0f0f"/></g><g class="cls-8"><rect class="cls-9" y="210.42" width="454.19" height="128.46" fill="#0f0f0f"/></g></g><g id="_2" data-name="2"><path class="cls-10" d="M203.07,400.71a1.59,1.59,0,0,1,1.56-1.56H214.8a11.32,11.32,0,0,1,7,20.26,13,13,0,0,1-4.1,25.34H204.57a1.53,1.53,0,0,1-1.5-1.56Zm11.73,17.91a8.14,8.14,0,1,0,0-16.29h-8.53v16.29Zm2.87,22.93a9.84,9.84,0,1,0,0-19.67h-11.4v19.67Z" transform="translate(-188.76 -34.37)" fill="#0f0f0f"/><path class="cls-10" d="M241.77,400.71a1.59,1.59,0,0,1,1.56-1.56h23.45a1.6,1.6,0,0,1,0,3.19H245v18H264a1.6,1.6,0,0,1,0,3.19H245v18h21.82a1.6,1.6,0,0,1,0,3.19H243.2a1.56,1.56,0,0,1-1.43-1.56Z" transform="translate(-188.76 -34.37)" fill="#0f0f0f"/><path class="cls-10" d="M305.34,433H284.56l-4,10.75a1.61,1.61,0,0,1-1.5,1c-.13,0-.39-.07-.59-.07a1.67,1.67,0,0,1-.91-2.08l15.83-42.28a1.74,1.74,0,0,1,1.56-1,1.61,1.61,0,0,1,1.56,1l15.83,42.28a1.63,1.63,0,0,1-.85,2.08c-.26,0-.39.07-.59.07a1.67,1.67,0,0,1-1.5-1Zm-19.61-3.19h18.43L295,405.27Z" transform="translate(-188.76 -34.37)" fill="#0f0f0f"/><path class="cls-10" d="M322,400.71a1.6,1.6,0,0,1,3.19,0v25.6a15.24,15.24,0,1,0,30.49,0v-25.6a1.6,1.6,0,0,1,3.19,0v25.6a18.43,18.43,0,1,1-36.87,0Z" transform="translate(-188.76 -34.37)" fill="#0f0f0f"/><path class="cls-10" d="M386.71,402.34H373a1.6,1.6,0,0,1,0-3.19h30.62a1.6,1.6,0,0,1,0,3.19H389.83v40.84a1.56,1.56,0,0,1-3.13,0Z" transform="translate(-188.76 -34.37)" fill="#0f0f0f"/><path class="cls-10" d="M430.22,422.86l-15.31-20.91a1.68,1.68,0,0,1,.33-2.21,1.5,1.5,0,0,1,2.21.26l14.27,19.61L446.05,400a1.5,1.5,0,0,1,2.21-.26,1.56,1.56,0,0,1,.33,2.21l-15.24,20.78v20.45a1.54,1.54,0,0,1-1.56,1.56,1.59,1.59,0,0,1-1.56-1.56Z" transform="translate(-188.76 -34.37)" fill="#0f0f0f"/><path class="cls-10" d="M491.59,443.83c-.07,0-.07-.07-.07-.13l-.07-.07-17.65-42a1.63,1.63,0,0,1,.85-2.08,1.55,1.55,0,0,1,2.08.78L493,439.14l16.35-38.82a1.46,1.46,0,0,1,2-.78,1.63,1.63,0,0,1,.85,2.08l-17.65,41.69a1.52,1.52,0,0,1-.91,1.3h-.06a1.93,1.93,0,0,1-.59.13,1.61,1.61,0,0,1-.59-.07.06.06,0,0,1-.07-.06A1.18,1.18,0,0,1,491.59,443.83Z" transform="translate(-188.76 -34.37)" fill="#0f0f0f"/><path class="cls-10" d="M525.92,400.71a1.6,1.6,0,0,1,3.19,0v42.47a1.6,1.6,0,0,1-3.19,0Z" transform="translate(-188.76 -34.37)" fill="#0f0f0f"/><path class="cls-10" d="M547,444.74h-.13a1.59,1.59,0,0,1-1.56-1.56V400.71a1.6,1.6,0,0,1,3.19,0v40.84h21.82a1.6,1.6,0,1,1,0,3.19Z" transform="translate(-188.76 -34.37)" fill="#0f0f0f"/><path class="cls-10" d="M583.7,444.74h-.13a1.59,1.59,0,0,1-1.56-1.56V400.71a1.6,1.6,0,0,1,3.19,0v40.84H607a1.6,1.6,0,1,1,0,3.19Z" transform="translate(-188.76 -34.37)" fill="#0f0f0f"/><path class="cls-10" d="M643.63,433H622.85l-4,10.75a1.61,1.61,0,0,1-1.5,1c-.13,0-.39-.07-.59-.07a1.67,1.67,0,0,1-.91-2.08l15.83-42.28a1.74,1.74,0,0,1,1.56-1,1.61,1.61,0,0,1,1.56,1l15.83,42.28a1.63,1.63,0,0,1-.85,2.08c-.26,0-.39.07-.59.07a1.67,1.67,0,0,1-1.5-1ZM624,429.76h18.43l-9.18-24.49Z" transform="translate(-188.76 -34.37)" fill="#0f0f0f"/><path class="cls-11" d="M203.07,400.71a1.59,1.59,0,0,1,1.56-1.56H214.8a11.32,11.32,0,0,1,7,20.26,13,13,0,0,1-4.1,25.34H204.57a1.53,1.53,0,0,1-1.5-1.56Zm11.73,17.91a8.14,8.14,0,1,0,0-16.29h-8.53v16.29Zm2.87,22.93a9.84,9.84,0,1,0,0-19.67h-11.4v19.67Z" transform="translate(-188.76 -34.37)" fill="#0f0f0f"/><path class="cls-11" d="M241.77,400.71a1.59,1.59,0,0,1,1.56-1.56h23.45a1.6,1.6,0,0,1,0,3.19H245v18H264a1.6,1.6,0,0,1,0,3.19H245v18h21.82a1.6,1.6,0,0,1,0,3.19H243.2a1.56,1.56,0,0,1-1.43-1.56Z" transform="translate(-188.76 -34.37)" fill="#0f0f0f"/><path class="cls-11" d="M305.34,433H284.56l-4,10.75a1.61,1.61,0,0,1-1.5,1c-.13,0-.39-.07-.59-.07a1.67,1.67,0,0,1-.91-2.08l15.83-42.28a1.74,1.74,0,0,1,1.56-1,1.61,1.61,0,0,1,1.56,1l15.83,42.28a1.63,1.63,0,0,1-.85,2.08c-.26,0-.39.07-.59.07a1.67,1.67,0,0,1-1.5-1Zm-19.61-3.19h18.43L295,405.27Z" transform="translate(-188.76 -34.37)" fill="#0f0f0f"/><path class="cls-11" d="M322,400.71a1.6,1.6,0,0,1,3.19,0v25.6a15.24,15.24,0,1,0,30.49,0v-25.6a1.6,1.6,0,0,1,3.19,0v25.6a18.43,18.43,0,1,1-36.87,0Z" transform="translate(-188.76 -34.37)" fill="#0f0f0f"/><path class="cls-11" d="M386.71,402.34H373a1.6,1.6,0,0,1,0-3.19h30.62a1.6,1.6,0,0,1,0,3.19H389.83v40.84a1.56,1.56,0,0,1-3.13,0Z" transform="translate(-188.76 -34.37)" fill="#0f0f0f"/><path class="cls-11" d="M430.22,422.86l-15.31-20.91a1.68,1.68,0,0,1,.33-2.21,1.5,1.5,0,0,1,2.21.26l14.27,19.61L446.05,400a1.5,1.5,0,0,1,2.21-.26,1.56,1.56,0,0,1,.33,2.21l-15.24,20.78v20.45a1.54,1.54,0,0,1-1.56,1.56,1.59,1.59,0,0,1-1.56-1.56Z" transform="translate(-188.76 -34.37)" fill="#0f0f0f"/><path class="cls-11" d="M491.59,443.83c-.07,0-.07-.07-.07-.13l-.07-.07-17.65-42a1.63,1.63,0,0,1,.85-2.08,1.55,1.55,0,0,1,2.08.78L493,439.14l16.35-38.82a1.46,1.46,0,0,1,2-.78,1.63,1.63,0,0,1,.85,2.08l-17.65,41.69a1.52,1.52,0,0,1-.91,1.3h-.06a1.93,1.93,0,0,1-.59.13,1.61,1.61,0,0,1-.59-.07.06.06,0,0,1-.07-.06A1.18,1.18,0,0,1,491.59,443.83Z" transform="translate(-188.76 -34.37)" fill="#0f0f0f"/><path class="cls-11" d="M525.92,400.71a1.6,1.6,0,0,1,3.19,0v42.47a1.6,1.6,0,0,1-3.19,0Z" transform="translate(-188.76 -34.37)" fill="#0f0f0f"/><path class="cls-11" d="M547,444.74h-.13a1.59,1.59,0,0,1-1.56-1.56V400.71a1.6,1.6,0,0,1,3.19,0v40.84h21.82a1.6,1.6,0,1,1,0,3.19Z" transform="translate(-188.76 -34.37)" fill="#0f0f0f"/><path class="cls-11" d="M583.7,444.74h-.13a1.59,1.59,0,0,1-1.56-1.56V400.71a1.6,1.6,0,0,1,3.19,0v40.84H607a1.6,1.6,0,1,1,0,3.19Z" transform="translate(-188.76 -34.37)" fill="#0f0f0f"/><path class="cls-11" d="M643.63,433H622.85l-4,10.75a1.61,1.61,0,0,1-1.5,1c-.13,0-.39-.07-.59-.07a1.67,1.67,0,0,1-.91-2.08l15.83-42.28a1.74,1.74,0,0,1,1.56-1,1.61,1.61,0,0,1,1.56,1l15.83,42.28a1.63,1.63,0,0,1-.85,2.08c-.26,0-.39.07-.59.07a1.67,1.67,0,0,1-1.5-1ZM624,429.76h18.43l-9.18-24.49Z" transform="translate(-188.76 -34.37)" fill="#0f0f0f"/></g><g id="Layer_6" data-name="Layer 6"><g class="cls-12"><rect class="cls-13" x="64.66" y="88.24" width="104.45" height="145.68" fill="#0f0f0f"/></g><g class="cls-14"><rect class="cls-15" x="290.59" y="86.68" width="130.35" height="130.15" fill="#0f0f0f"/></g><g class="cls-16"><rect class="cls-17" x="175.69" y="0.17" width="143.97" height="289.92" fill="#0f0f0f"/></g><g class="cls-18"><rect class="cls-19" y="209.88" width="452.65" height="128.2" fill="#0f0f0f"/></g></g></svg>